<?xml version="1.0" encoding="UTF-8"?>
<svg id="Livello_1" data-name="Livello 1" xmlns="http://www.w3.org/2000/svg" viewBox="0 0 891.34 500">
  <defs>
    <style>
      .cls-1 {
        fill: #e6332a;
      }
    </style>
  </defs>
  <path class="cls-1" d="M147.6,286.08v-1.23l1.06-5.04c.81-3.83,4.45-8.37,7.34-11.22,1.81-1.78,3.87-3.25,5.93-4.79.87-.65,2.08-.93,3.1-1.51l-9.52-11.16c1.47-.35,2.88-.1,4.3-.02,1.84.11,3.62.08,5.43-.05l-5.68-21.96c-.04-.15-.17-.37-.22-.45-.04-.07.54-.2.7-.08l14.57,9.8,6.71,4.44-.12-2.13-.19-4.42-.22-4.93-.24-5.09-.16-4.24c-.04-1.15-.44-2.25.05-3.49l10.49,11.86,6.19,6.98,12.49-32.65c.49.1.58.18.54.5l5.6,28.27,18.34-27.07c.28.73.4,1.42.45,2.07l.23,2.86.22,2.67.22,2.67.22,2.67.22,2.67.22,2.67.22,2.67.24,2.86c.07.82,0,1.5.38,2.32l17.5-22.08c.06-.08.6.22.6.42l.1,8.76.13,17.46,12.83-6.89,16.69-8.81-13.31,24.84,19.6,6.7c.22.08.33.43.38.82l-9.12,2.16-10.01,2.35,1.91,1.63,3.2,2.78,2.67,2.26,3.1,2.67,3.33,2.86,3.23,2.87c-.2.29-.33.41-.56.39l-12.98,2.17,12.56,19.43h-133.53s-2.53-1.53-2.53-1.53c-1.48-.89-3.12-2.41-3.79-3.81-.62-1.31-.48-2.79-1.12-3.9ZM172.8,277.07c3.57-3.1,5.74-4.75,7.84-8.98-1.76-.25-3.27.01-5.03.34-3.86.72-7.28,2.22-9.83,5.2-.68.8-1.26,3-.39,3.91,1.97,2.06,5.37,1.29,7.4-.47Z"/>
  <g>
    <path class="cls-1" d="M327.77,289.62c-2.21-2.24-3.31-4.96-3.31-8.15v-57.94c0-3.19,1.1-5.9,3.31-8.14,2.21-2.24,4.88-3.37,8.02-3.37h35.72c2.56,0,4.75.94,6.58,2.83,1.82,1.89,2.74,4.13,2.74,6.73s-.91,4.83-2.74,6.68c-1.82,1.85-4.02,2.78-6.58,2.78h-25.25c-.13,0-.26.07-.38.2-.13.13-.19.26-.19.39v10.24c0,.13.06.26.19.39.13.13.25.19.38.19h21.6c2.5,0,4.62.9,6.38,2.68,1.76,1.79,2.64,3.98,2.64,6.58s-.88,4.7-2.64,6.49c-1.76,1.79-3.89,2.68-6.38,2.68h-21.6c-.13,0-.26.07-.38.2-.13.13-.19.26-.19.39v11.9c0,.13.06.26.19.39.13.13.25.2.38.2h26.5c2.56,0,4.75.94,6.58,2.83,1.82,1.89,2.74,4.13,2.74,6.73s-.91,4.83-2.74,6.68c-1.82,1.85-4.02,2.78-6.58,2.78h-36.96c-3.14,0-5.81-1.12-8.02-3.36Z"/>
    <path class="cls-1" d="M423.64,260.74c-.13-.03-.26.02-.38.15l-7.58,8.88c-.26.26-.38.62-.38,1.07v11.32c0,3.06-1.07,5.66-3.22,7.8-2.14,2.15-4.72,3.22-7.73,3.22s-5.49-1.09-7.63-3.27c-2.15-2.18-3.22-4.76-3.22-7.76v-59.21c0-3.06,1.06-5.67,3.17-7.85,2.11-2.18,4.67-3.27,7.68-3.27s5.58,1.09,7.73,3.27c2.14,2.18,3.22,4.8,3.22,7.85v19.02c0,.13.05.2.14.2s.18-.03.24-.1l22.56-28.19c.96-1.17,2.13-2.08,3.5-2.73,1.38-.65,2.8-.98,4.27-.98,2.3,0,4.32.68,6.05,2.05,1.15.91,2.03,2,2.64,3.27.61,1.27.91,2.62.91,4.05,0,2.41-.74,4.46-2.21,6.15l-14.59,17.07c-.26.39-.29.72-.1.98l19.68,35.12c.96,1.63,1.44,3.38,1.44,5.27s-.5,3.67-1.49,5.37c-.99,1.69-2.39,3.02-4.18,4-1.79.84-3.52,1.27-5.19,1.27-1.92,0-3.74-.5-5.47-1.51-1.73-1.01-3.11-2.42-4.13-4.24l-15.46-28c-.06-.13-.16-.21-.29-.24Z"/>
    <path class="cls-1" d="M472.8,289.81c-2.11-2.11-3.17-4.67-3.17-7.66v-59.21c0-3.06,1.06-5.64,3.17-7.75,2.11-2.11,4.64-3.17,7.58-3.17s5.46,1.07,7.54,3.22,3.12,4.72,3.12,7.71v59.21c0,2.99-1.04,5.55-3.12,7.66s-4.59,3.17-7.54,3.17-5.47-1.06-7.58-3.17Z"/>
    <path class="cls-1" d="M509.52,289.62c-2.21-2.24-3.31-4.96-3.31-8.15v-57.94c0-3.19,1.1-5.9,3.31-8.14,2.21-2.24,4.88-3.37,8.02-3.37h19.97c12.61,0,22.5,3.43,29.67,10.29,7.17,6.86,10.75,16.92,10.75,30.19s-3.5,22.76-10.51,29.85c-7.01,7.09-16.98,10.63-29.91,10.63h-19.97c-3.14,0-5.81-1.12-8.02-3.36ZM556.14,252.5c0-13.53-6.85-20.29-20.55-20.29h-7.68c-.13,0-.26.07-.38.2-.13.13-.19.26-.19.39v39.41c0,.13.06.26.19.39.13.13.25.2.38.2h7.68c13.7,0,20.55-6.76,20.55-20.29Z"/>
    <path class="cls-1" d="M593.91,289.91c-2.02-2.05-3.02-4.5-3.02-7.36v-56.58c0-3.19.96-5.98,2.88-8.39,1.92-2.41,4.38-3.97,7.39-4.68,1.02-.26,2.05-.39,3.07-.39,2.24,0,4.53.57,6.86,1.71,2.34,1.14,4.27,2.97,5.81,5.51l22.56,38.14c.06.07.13.08.19.05.06-.03.1-.08.1-.15v-35.31c0-2.86,1.01-5.32,3.02-7.36,2.02-2.05,4.43-3.07,7.25-3.07s5.23,1.03,7.25,3.07,3.02,4.5,3.02,7.36v56.38c0,3.19-.99,6-2.98,8.44s-4.42,3.95-7.3,4.54c-1.15.26-2.18.39-3.07.39-2.3,0-4.62-.57-6.96-1.71-2.34-1.14-4.24-2.98-5.71-5.51l-22.56-38.04c-.06-.06-.13-.08-.19-.05-.06.03-.1.08-.1.15v35.51c0,2.86-1.01,5.32-3.02,7.36-2.02,2.05-4.43,3.07-7.25,3.07s-5.23-1.02-7.25-3.07Z"/>
    <path class="cls-1" d="M671.15,290.93c-1.22-1.76-1.82-3.71-1.82-5.85,0-1.23.26-2.57.77-4l24.48-60.97c1.15-2.67,2.85-4.7,5.09-6.1,2.24-1.4,4.54-2.1,6.91-2.1s4.67.7,6.91,2.1c2.24,1.4,3.94,3.43,5.09,6.1l24.39,60.67c.51,1.43.77,2.8.77,4.1,0,2.15-.61,4.11-1.82,5.9-1.22,1.79-2.88,3.07-4.99,3.85-1.34.45-2.56.68-3.65.68-2.18,0-4.21-.63-6.1-1.9-1.89-1.27-3.25-3.07-4.08-5.41l-2.88-8.19c-.13-.39-.38-.59-.77-.59h-26.02c-.38,0-.64.2-.77.59l-2.88,8.29c-.83,2.28-2.16,4.05-3.98,5.32s-3.86,1.9-6.1,1.9c-1.22,0-2.4-.2-3.55-.58-2.11-.78-3.78-2.05-4.99-3.8ZM713.59,260.79l-7.11-20.29c-.06-.06-.13-.1-.19-.1s-.13.03-.19.1l-6.91,20.29c-.13.33,0,.49.38.49h13.63c.38,0,.51-.16.38-.49Z"/>
  </g>
</svg>