<?xml version="1.0" encoding="UTF-8"?>
<svg id="Livello_1" data-name="Livello 1" xmlns="http://www.w3.org/2000/svg" viewBox="0 0 500 500">
  <defs>
    <style>
      .cls-1 {
        fill: #e6332a;
      }
    </style>
  </defs>
  <path class="cls-1" d="M95.68,327.52v-2.65l2.28-10.83c1.73-8.22,9.55-17.99,15.76-24.1,3.89-3.83,8.31-6.98,12.73-10.29,1.86-1.39,4.48-2,6.67-3.25l-20.46-23.98c3.16-.75,6.18-.22,9.24-.04,3.95.23,7.77.18,11.67-.1l-12.21-47.2c-.08-.33-.37-.8-.47-.97-.09-.15,1.15-.42,1.51-.18l31.3,21.05,14.42,9.54-.26-4.58-.4-9.5-.48-10.59-.51-10.94-.33-9.11c-.09-2.47-.94-4.84.12-7.5l22.53,25.48,13.3,15.01,26.83-70.17c1.04.22,1.25.39,1.16,1.06l12.04,60.75,39.41-58.16c.61,1.57.85,3.06.96,4.45l.49,6.14.47,5.74.47,5.74.48,5.74.48,5.74.48,5.74.48,5.74.51,6.15c.15,1.76,0,3.23.81,4.99l37.6-47.45c.13-.16,1.28.47,1.29.9l.22,18.82.28,37.52,27.56-14.81,35.87-18.94-28.59,53.38,42.12,14.4c.47.16.71.92.82,1.77l-19.6,4.64-21.52,5.06,4.11,3.51,6.87,5.98,5.73,4.86,6.67,5.74,7.16,6.16,6.94,6.16c-.43.63-.71.87-1.2.85l-27.9,4.66,27,41.75H111.66s-5.43-3.28-5.43-3.28c-3.18-1.92-6.71-5.19-8.14-8.19-1.34-2.8-1.03-5.99-2.41-8.39ZM149.83,308.17c7.68-6.66,12.34-10.21,16.86-19.3-3.78-.55-7.03.02-10.82.73-8.3,1.54-15.64,4.78-21.11,11.18-1.46,1.71-2.7,6.45-.83,8.4,4.23,4.42,11.54,2.78,15.9-1.01Z"/>
</svg>