<?xml version="1.0" encoding="UTF-8"?>
<svg id="Livello_1" data-name="Livello 1" xmlns="http://www.w3.org/2000/svg" viewBox="0 0 500 500">
  <defs>
    <style>
      .cls-1 {
        fill: #e6332a;
      }
    </style>
  </defs>
  <g>
    <path class="cls-1" d="M80.78,384.48c-1.81-1.84-2.72-4.07-2.72-6.68v-47.52c0-2.61.91-4.84,2.72-6.68,1.81-1.84,4-2.76,6.58-2.76h29.29c2.1,0,3.9.77,5.39,2.32,1.5,1.55,2.24,3.39,2.24,5.52s-.75,3.96-2.24,5.48c-1.5,1.52-3.29,2.28-5.39,2.28h-20.71c-.11,0-.21.05-.31.16-.11.11-.16.21-.16.32v8.4c0,.11.05.21.16.32.1.11.21.16.31.16h17.72c2.05,0,3.79.73,5.24,2.2,1.44,1.47,2.17,3.27,2.17,5.4s-.72,3.85-2.17,5.32c-1.44,1.47-3.19,2.2-5.24,2.2h-17.72c-.11,0-.21.05-.31.16-.11.11-.16.21-.16.32v9.76c0,.11.05.21.16.32.1.11.21.16.31.16h21.73c2.1,0,3.9.77,5.39,2.32,1.5,1.55,2.24,3.39,2.24,5.52s-.75,3.96-2.24,5.48c-1.5,1.52-3.29,2.28-5.39,2.28h-30.32c-2.57,0-4.76-.92-6.58-2.76Z"/>
    <path class="cls-1" d="M159.41,360.8c-.11-.03-.21.01-.31.12l-6.22,7.28c-.21.21-.32.51-.32.88v9.28c0,2.51-.88,4.64-2.64,6.4-1.76,1.76-3.87,2.64-6.34,2.64s-4.5-.89-6.26-2.68c-1.76-1.79-2.64-3.91-2.64-6.36v-48.56c0-2.51.87-4.65,2.6-6.44,1.73-1.79,3.83-2.68,6.3-2.68s4.58.89,6.34,2.68c1.76,1.79,2.64,3.93,2.64,6.44v15.6c0,.11.04.16.12.16s.14-.03.2-.08l18.5-23.12c.79-.96,1.74-1.71,2.87-2.24,1.13-.53,2.3-.8,3.5-.8,1.89,0,3.54.56,4.96,1.68.94.75,1.67,1.64,2.17,2.68.5,1.04.75,2.15.75,3.32,0,1.97-.6,3.65-1.81,5.04l-11.97,14c-.21.32-.24.59-.08.8l16.14,28.8c.79,1.33,1.18,2.77,1.18,4.32s-.41,3.01-1.22,4.4c-.81,1.39-1.96,2.48-3.42,3.28-1.47.69-2.89,1.04-4.25,1.04-1.57,0-3.07-.41-4.49-1.24-1.42-.83-2.55-1.99-3.39-3.48l-12.68-22.96c-.05-.11-.13-.17-.24-.2Z"/>
    <path class="cls-1" d="M199.72,384.64c-1.73-1.73-2.6-3.83-2.6-6.28v-48.56c0-2.51.87-4.63,2.6-6.36,1.73-1.73,3.81-2.6,6.22-2.6s4.47.88,6.18,2.64,2.56,3.87,2.56,6.32v48.56c0,2.45-.85,4.55-2.56,6.28s-3.77,2.6-6.18,2.6-4.49-.87-6.22-2.6Z"/>
    <path class="cls-1" d="M229.84,384.48c-1.81-1.84-2.72-4.07-2.72-6.68v-47.52c0-2.61.91-4.84,2.72-6.68,1.81-1.84,4-2.76,6.58-2.76h16.38c10.34,0,18.45,2.81,24.33,8.44,5.88,5.63,8.82,13.88,8.82,24.76s-2.87,18.67-8.62,24.48-13.92,8.72-24.53,8.72h-16.38c-2.57,0-4.76-.92-6.58-2.76ZM268.07,354.04c0-11.09-5.62-16.64-16.85-16.64h-6.3c-.11,0-.21.05-.32.16-.11.11-.16.21-.16.32v32.32c0,.11.05.21.16.32.1.11.21.16.32.16h6.3c11.23,0,16.85-5.55,16.85-16.64Z"/>
    <path class="cls-1" d="M299.06,384.72c-1.65-1.68-2.48-3.69-2.48-6.04v-46.4c0-2.61.79-4.91,2.36-6.88,1.58-1.97,3.59-3.25,6.06-3.84.84-.21,1.68-.32,2.52-.32,1.84,0,3.71.47,5.63,1.4,1.92.93,3.5,2.44,4.76,4.52l18.5,31.28c.05.05.1.07.16.04.05-.03.08-.07.08-.12v-28.96c0-2.35.83-4.36,2.48-6.04,1.65-1.68,3.63-2.52,5.94-2.52s4.29.84,5.95,2.52,2.48,3.69,2.48,6.04v46.24c0,2.61-.81,4.92-2.44,6.92s-3.62,3.24-5.98,3.72c-.94.21-1.79.32-2.52.32-1.89,0-3.79-.47-5.71-1.4-1.92-.93-3.48-2.44-4.68-4.52l-18.5-31.2c-.05-.05-.11-.07-.16-.04-.05.03-.08.07-.08.12v29.12c0,2.35-.83,4.36-2.48,6.04-1.65,1.68-3.64,2.52-5.94,2.52s-4.29-.84-5.95-2.52Z"/>
    <path class="cls-1" d="M362.4,385.56c-1-1.44-1.5-3.04-1.5-4.8,0-1.01.21-2.11.63-3.28l20.08-50c.94-2.19,2.33-3.85,4.17-5,1.84-1.15,3.73-1.72,5.67-1.72s3.83.57,5.67,1.72c1.84,1.15,3.23,2.81,4.17,5l20,49.76c.42,1.17.63,2.29.63,3.36,0,1.76-.5,3.37-1.5,4.84-1,1.47-2.36,2.52-4.09,3.16-1.1.37-2.1.56-2.99.56-1.79,0-3.45-.52-5-1.56-1.55-1.04-2.67-2.52-3.35-4.44l-2.36-6.72c-.11-.32-.32-.48-.63-.48h-21.34c-.31,0-.53.16-.63.48l-2.36,6.8c-.68,1.87-1.77,3.32-3.27,4.36s-3.16,1.56-5,1.56c-1,0-1.97-.16-2.91-.48-1.73-.64-3.1-1.68-4.09-3.12ZM397.21,360.84l-5.83-16.64c-.05-.05-.11-.08-.16-.08s-.11.03-.16.08l-5.67,16.64c-.11.27,0,.4.32.4h11.18c.32,0,.42-.13.32-.4Z"/>
  </g>
  <path class="cls-1" d="M95.68,285.75v-2.65l2.28-10.83c1.73-8.22,9.55-17.99,15.76-24.1,3.89-3.83,8.31-6.98,12.73-10.29,1.86-1.39,4.48-2,6.67-3.25l-20.46-23.98c3.16-.75,6.18-.22,9.24-.04,3.95.23,7.77.18,11.67-.1l-12.21-47.2c-.08-.33-.37-.8-.47-.97-.09-.15,1.15-.42,1.51-.18l31.3,21.05,14.42,9.54-.26-4.58-.4-9.5-.48-10.59-.51-10.94-.33-9.11c-.09-2.47-.94-4.84.12-7.5l22.53,25.48,13.3,15.01,26.83-70.17c1.04.22,1.25.39,1.16,1.06l12.04,60.75,39.41-58.16c.61,1.57.85,3.06.96,4.45l.49,6.14.47,5.74.47,5.74.48,5.74.48,5.74.48,5.74.48,5.74.51,6.15c.15,1.76,0,3.23.81,4.99l37.6-47.45c.13-.16,1.28.47,1.29.9l.22,18.82.28,37.52,27.56-14.81,35.87-18.94-28.59,53.38,42.12,14.4c.47.16.71.92.82,1.77l-19.6,4.64-21.52,5.06,4.11,3.51,6.87,5.98,5.73,4.86,6.67,5.74,7.16,6.16,6.94,6.16c-.43.63-.71.87-1.2.85l-27.9,4.66,27,41.75H111.66s-5.43-3.28-5.43-3.28c-3.18-1.92-6.71-5.19-8.14-8.19-1.34-2.8-1.03-5.99-2.41-8.39ZM149.83,266.39c7.68-6.66,12.34-10.21,16.86-19.3-3.78-.55-7.03.02-10.82.73-8.3,1.54-15.64,4.78-21.11,11.18-1.46,1.71-2.7,6.45-.83,8.4,4.23,4.42,11.54,2.78,15.9-1.01Z"/>
</svg>